<svg xmlns="http://www.w3.org/2000/svg" viewBox="0 0 1200 2500" width="1200" height="2500">
  <!-- 스타일 정의 -->
  <defs>
    <style>
      .bg-light { fill: #F5F5F7; }
      .bg-white { fill: #FFFFFF; }
      .primary { fill: #7B4AFF; }
      .primary-light { fill: rgba(123, 74, 255, 0.1); }
      .neutral-2 { fill: #DDDDDD; }
      .neutral-3 { fill: #666666; }
      .neutral-4 { fill: #1A1A1A; }
      .text-primary { fill: #7B4AFF; }
      .text-dark { fill: #1A1A1A; }
      .text-gray { fill: #666666; }
      .border { fill: none; stroke: #DDDDDD; stroke-width: 2; }
      .btn-primary { fill: #7B4AFF; }
      .btn-outline { fill: none; stroke: #7B4AFF; stroke-width: 2; }
      .icon { fill: #7B4AFF; }
      .shadow { filter: drop-shadow(0px 4px 6px rgba(0, 0, 0, 0.1)); }
    </style>
  </defs>

  <!-- 배경 -->
  <rect class="bg-light" width="1200" height="2500" />

  <!-- 헤더 -->
  <rect class="bg-white" x="0" y="0" width="1200" height="80" />
  <circle class="primary" cx="60" cy="40" r="30" />
  <text x="110" y="48" font-family="Arial" font-size="24" font-weight="bold" class="text-dark">MyQuokka</text>
  
  <!-- 네비게이션 메뉴 -->
  <text x="350" y="48" font-family="Arial" font-size="16" class="text-dark">정보 센터</text>
  <text x="450" y="48" font-family="Arial" font-size="16" class="text-dark">서비스</text>
  <text x="550" y="48" font-family="Arial" font-size="16" class="text-dark">커뮤니티</text>
  <text x="650" y="48" font-family="Arial" font-size="16" class="text-dark">마켓플레이스</text>
  <text x="780" y="48" font-family="Arial" font-size="16" class="text-dark">문의하기</text>
  
  <!-- 로그인 버튼 -->
  <rect class="btn-outline" x="900" y="25" width="80" height="34" rx="17" />
  <text x="940" y="47" font-family="Arial" font-size="14" text-anchor="middle" class="text-primary">로그인</text>
  
  <!-- 회원가입 버튼 -->
  <rect class="btn-primary" x="1000" y="25" width="100" height="34" rx="17" />
  <text x="1050" y="47" font-family="Arial" font-size="14" text-anchor="middle" fill="white">회원가입</text>

  <!-- 히어로 섹션 -->
  <rect class="bg-white" x="100" y="120" width="1000" height="400" rx="20" />
  <text x="600" y="200" font-family="Arial" font-size="36" font-weight="bold" text-anchor="middle" class="text-dark">외국인의 한국 생활, 더 쉽고 풍요롭게</text>
  <text x="600" y="250" font-family="Arial" font-size="18" text-anchor="middle" class="text-gray">MyQuokka는 한국에 거주하거나 방문하는 외국인들을 위한 종합 생활 지원 서비스입니다.</text>
  <text x="600" y="280" font-family="Arial" font-size="18" text-anchor="middle" class="text-gray">언어, 행정, 문화적 장벽을 넘어 더 나은 한국 생활을 경험하세요.</text>
  
  <!-- 히어로 버튼 -->
  <rect class="btn-primary" x="500" y="320" width="200" height="50" rx="25" />
  <text x="600" y="352" font-family="Arial" font-size="16" font-weight="bold" text-anchor="middle" fill="white">시작하기</text>
  
  <!-- 언어 선택 -->
  <rect class="bg-white" x="950" y="320" width="100" height="40" rx="20" />
  <text x="1000" y="345" font-family="Arial" font-size="14" text-anchor="middle" class="text-gray">EN | KO</text>

  <!-- 핵심 서비스 섹션 -->
  <text x="600" y="580" font-family="Arial" font-size="28" font-weight="bold" text-anchor="middle" class="text-dark">핵심 서비스</text>
  
  <!-- 서비스 카드 1: 정보 제공 -->
  <rect class="bg-white shadow" x="100" y="630" width="300" height="300" rx="20" />
  <circle class="primary-light" cx="150" cy="680" r="30" />
  <text x="200" y="685" font-family="Arial" font-size="14" font-weight="bold" class="text-primary">정보 제공 서비스</text>
  <text x="250" y="720" font-family="Arial" font-size="18" font-weight="bold" text-anchor="middle" class="text-dark">한국 생활 필수 정보</text>
  <text x="250" y="750" font-family="Arial" font-size="14" text-anchor="middle" class="text-gray">주거, 교통, 일상생활, 언어, 행정,</text>
  <text x="250" y="770" font-family="Arial" font-size="14" text-anchor="middle" class="text-gray">의료, 문화, 취업, 긴급상황, 교육까지</text>
  <text x="250" y="790" font-family="Arial" font-size="14" text-anchor="middle" class="text-gray">10개 카테고리의 정보를 제공합니다.</text>
  <rect class="btn-outline" x="175" y="830" width="150" height="40" rx="20" />
  <text x="250" y="855" font-family="Arial" font-size="14" text-anchor="middle" class="text-primary">더 알아보기</text>
  
  <!-- 서비스 카드 2: 맞춤형 지원 -->
  <rect class="bg-white shadow" x="450" y="630" width="300" height="300" rx="20" />
  <circle class="primary-light" cx="500" cy="680" r="30" />
  <text x="550" y="685" font-family="Arial" font-size="14" font-weight="bold" class="text-primary">맞춤형 지원 서비스</text>
  <text x="600" y="720" font-family="Arial" font-size="18" font-weight="bold" text-anchor="middle" class="text-dark">개인화된 생활 지원</text>
  <text x="600" y="750" font-family="Arial" font-size="14" text-anchor="middle" class="text-gray">통역/번역 서비스, 행정 지원 서비스,</text>
  <text x="600" y="770" font-family="Arial" font-size="14" text-anchor="middle" class="text-gray">정착 컨설팅, 문화 체험 가이드 등의</text>
  <text x="600" y="790" font-family="Arial" font-size="14" text-anchor="middle" class="text-gray">맞춤형 서비스를 제공합니다.</text>
  <rect class="btn-outline" x="525" y="830" width="150" height="40" rx="20" />
  <text x="600" y="855" font-family="Arial" font-size="14" text-anchor="middle" class="text-primary">더 알아보기</text>
  
  <!-- 서비스 카드 3: 커뮤니티 -->
  <rect class="bg-white shadow" x="800" y="630" width="300" height="300" rx="20" />
  <circle class="primary-light" cx="850" cy="680" r="30" />
  <text x="900" y="685" font-family="Arial" font-size="14" font-weight="bold" class="text-primary">커뮤니티 플랫폼</text>
  <text x="950" y="720" font-family="Arial" font-size="18" font-weight="bold" text-anchor="middle" class="text-dark">외국인 커뮤니티 형성</text>
  <text x="950" y="750" font-family="Arial" font-size="14" text-anchor="middle" class="text-gray">주제별 커뮤니티, 중고거래 마켓플레이스,</text>
  <text x="950" y="770" font-family="Arial" font-size="14" text-anchor="middle" class="text-gray">이벤트 및 모임, Q&amp;A 포럼 등으로</text>
  <text x="950" y="790" font-family="Arial" font-size="14" text-anchor="middle" class="text-gray">연결과 정보 공유를 지원합니다.</text>
  <rect class="btn-outline" x="875" y="830" width="150" height="40" rx="20" />
  <text x="950" y="855" font-family="Arial" font-size="14" text-anchor="middle" class="text-primary">더 알아보기</text>

  <!-- 정보 카테고리 섹션 -->
  <text x="600" y="1000" font-family="Arial" font-size="28" font-weight="bold" text-anchor="middle" class="text-dark">한국 생활 필수 정보</text>
  <text x="600" y="1030" font-family="Arial" font-size="16" text-anchor="middle" class="text-gray">10개 카테고리로 체계화된 한국 생활 필수 정보를 확인하세요</text>
  
  <!-- 정보 카테고리 그리드 (5x2) -->
  <rect class="bg-white" x="100" y="1070" width="190" height="120" rx="10" />
  <text x="195" y="1130" font-family="Arial" font-size="16" font-weight="bold" text-anchor="middle" class="text-dark">주거 및 공과금</text>
  
  <rect class="bg-white" x="310" y="1070" width="190" height="120" rx="10" />
  <text x="405" y="1130" font-family="Arial" font-size="16" font-weight="bold" text-anchor="middle" class="text-dark">교통 및 주차</text>
  
  <rect class="bg-white" x="520" y="1070" width="190" height="120" rx="10" />
  <text x="615" y="1130" font-family="Arial" font-size="16" font-weight="bold" text-anchor="middle" class="text-dark">일상 생활</text>
  
  <rect class="bg-white" x="730" y="1070" width="190" height="120" rx="10" />
  <text x="825" y="1130" font-family="Arial" font-size="16" font-weight="bold" text-anchor="middle" class="text-dark">언어 및 소통</text>
  
  <rect class="bg-white" x="940" y="1070" width="190" height="120" rx="10" />
  <text x="1035" y="1130" font-family="Arial" font-size="16" font-weight="bold" text-anchor="middle" class="text-dark">행정 절차</text>
  
  <rect class="bg-white" x="100" y="1210" width="190" height="120" rx="10" />
  <text x="195" y="1270" font-family="Arial" font-size="16" font-weight="bold" text-anchor="middle" class="text-dark">의료 서비스</text>
  
  <rect class="bg-white" x="310" y="1210" width="190" height="120" rx="10" />
  <text x="405" y="1270" font-family="Arial" font-size="16" font-weight="bold" text-anchor="middle" class="text-dark">문화 및 적응</text>
  
  <rect class="bg-white" x="520" y="1210" width="190" height="120" rx="10" />
  <text x="615" y="1270" font-family="Arial" font-size="16" font-weight="bold" text-anchor="middle" class="text-dark">취업 및 직장</text>
  
  <rect class="bg-white" x="730" y="1210" width="190" height="120" rx="10" />
  <text x="825" y="1270" font-family="Arial" font-size="16" font-weight="bold" text-anchor="middle" class="text-dark">긴급 상황</text>
  
  <rect class="bg-white" x="940" y="1210" width="190" height="120" rx="10" />
  <text x="1035" y="1270" font-family="Arial" font-size="16" font-weight="bold" text-anchor="middle" class="text-dark">자녀 교육</text>

  <!-- 맞춤형 서비스 섹션 -->
  <text x="600" y="1400" font-family="Arial" font-size="28" font-weight="bold" text-anchor="middle" class="text-dark">맞춤형 서비스</text>
  <text x="600" y="1430" font-family="Arial" font-size="16" text-anchor="middle" class="text-gray">상황과 필요에 맞는 맞춤형 서비스를 이용하세요</text>
  
  <!-- 서비스 리스트 -->
  <rect class="bg-white" x="100" y="1470" width="1000" height="100" rx="10" />
  <text x="140" y="1520" font-family="Arial" font-size="18" font-weight="bold" class="text-dark">통역/번역 서비스</text>
  <text x="140" y="1545" font-family="Arial" font-size="14" class="text-gray">일상 대화부터 전문 문서까지 다양한 번역 지원</text>
  <rect class="btn-primary" x="900" y="1500" width="150" height="40" rx="20" />
  <text x="975" y="1525" font-family="Arial" font-size="14" text-anchor="middle" fill="white">시간당 50,000원</text>
  
  <rect class="bg-white" x="100" y="1590" width="1000" height="100" rx="10" />
  <text x="140" y="1640" font-family="Arial" font-size="18" font-weight="bold" class="text-dark">행정 지원 서비스</text>
  <text x="140" y="1665" font-family="Arial" font-size="14" class="text-gray">비자 신청, 외국인 등록, 은행 계좌 개설 등 동행 지원</text>
  <rect class="btn-primary" x="900" y="1620" width="150" height="40" rx="20" />
  <text x="975" y="1645" font-family="Arial" font-size="14" text-anchor="middle" fill="white">시간당 70,000원</text>
  
  <rect class="bg-white" x="100" y="1710" width="1000" height="100" rx="10" />
  <text x="140" y="1760" font-family="Arial" font-size="18" font-weight="bold" class="text-dark">정착 컨설팅</text>
  <text x="140" y="1785" font-family="Arial" font-size="14" class="text-gray">주거, 교육, 의료 등 종합적인 정착 계획 수립 지원</text>
  <rect class="btn-primary" x="900" y="1740" width="150" height="40" rx="20" />
  <text x="975" y="1765" font-family="Arial" font-size="14" text-anchor="middle" fill="white">120,000원/회</text>
  
  <rect class="bg-white" x="100" y="1830" width="1000" height="100" rx="10" />
  <text x="140" y="1880" font-family="Arial" font-size="18" font-weight="bold" class="text-dark">문화 체험 가이드</text>
  <text x="140" y="1905" font-family="Arial" font-size="14" class="text-gray">현지인만 아는 장소와 경험 안내</text>
  <rect class="btn-primary" x="900" y="1860" width="150" height="40" rx="20" />
  <text x="975" y="1885" font-family="Arial" font-size="14" text-anchor="middle" fill="white">80,000원/회</text>

  <!-- 멤버십 섹션 -->
  <text x="600" y="2000" font-family="Arial" font-size="28" font-weight="bold" text-anchor="middle" class="text-dark">멤버십 플랜</text>
  <text x="600" y="2030" font-family="Arial" font-size="16" text-anchor="middle" class="text-gray">더 많은 혜택을 원하신다면 멤버십에 가입하세요</text>
  
  <!-- 멤버십 카드 1: 스탠다드 -->
  <rect class="bg-white" x="250" y="2070" width="300" height="350" rx="20" />
  <text x="400" y="2110" font-family="Arial" font-size="22" font-weight="bold" text-anchor="middle" class="text-dark">스탠다드 멤버십</text>
  <text x="400" y="2150" font-family="Arial" font-size="30" font-weight="bold" text-anchor="middle" class="text-primary">월 29,000원</text>
  <line x1="280" y1="2170" x2="520" y2="2170" stroke="#DDDDDD" stroke-width="1" />
  
  <text x="300" y="2200" font-family="Arial" font-size="14" class="text-dark">• 기본 번역 서비스(월 2시간)</text>
  <text x="300" y="2230" font-family="Arial" font-size="14" class="text-dark">• 행정 서비스 지원(월 2시간)</text>
  <text x="300" y="2260" font-family="Arial" font-size="14" class="text-dark">• 문화 체험 할인(월 1회, 20% 할인)</text>
  <text x="300" y="2290" font-family="Arial" font-size="14" class="text-dark">• 24/7 채팅 지원, 우선 응답</text>
  <text x="300" y="2320" font-family="Arial" font-size="14" class="text-dark">• 무료 콘텐츠의 심층 버전 접근</text>
  
  <rect class="btn-outline" x="300" y="2350" width="200" height="40" rx="20" />
  <text x="400" y="2375" font-family="Arial" font-size="14" text-anchor="middle" class="text-primary">가입하기</text>
  
  <!-- 멤버십 카드 2: 프리미엄 -->
  <rect class="bg-white" x="650" y="2070" width="300" height="350" rx="20" />
  <rect class="primary-light" x="650" y="2070" width="300" height="350" rx="20" />
  <text x="800" y="2110" font-family="Arial" font-size="22" font-weight="bold" text-anchor="middle" class="text-dark">프리미엄 멤버십</text>
  <text x="800" y="2150" font-family="Arial" font-size="30" font-weight="bold" text-anchor="middle" class="text-primary">월 99,000원</text>
  <line x1="680" y1="2170" x2="920" y2="2170" stroke="#DDDDDD" stroke-width="1" />
  
  <text x="700" y="2200" font-family="Arial" font-size="14" class="text-dark">• 고급 번역 서비스</text>
  <text x="700" y="2230" font-family="Arial" font-size="14" class="text-dark">• 행정 업무 대행(월 8시간)</text>
  <text x="700" y="2260" font-family="Arial" font-size="14" class="text-dark">• 동행 서비스(월 4시간, 장소 3곳)</text>
  <text x="700" y="2290" font-family="Arial" font-size="14" class="text-dark">• VIP 문화 체험, 긴급 응대</text>
  <text x="700" y="2320" font-family="Arial" font-size="14" class="text-dark">• 전체 콘텐츠 라이브러리 접근</text>
  
  <rect class="btn-primary" x="700" y="2350" width="200" height="40" rx="20" />
  <text x="800" y="2375" font-family="Arial" font-size="14" text-anchor="middle" fill="white">가입하기</text>

  <!-- 푸터 -->
  <rect class="neutral-4" x="0" y="2450" width="1200" height="50" />
  <text x="600" y="2480" font-family="Arial" font-size="14" text-anchor="middle" fill="white">© 2025 MyQuokka. 외국인의 한국 생활, 더 쉽고 풍요롭게</text>
</svg>
